<?xml version="1.0" encoding="utf-8"?>
<!-- Generator: Adobe Illustrator 25.3.1, SVG Export Plug-In . SVG Version: 6.00 Build 0)  -->
<svg version="1.1" id="Layer_1" xmlns="http://www.w3.org/2000/svg" xmlns:xlink="http://www.w3.org/1999/xlink" x="0px" y="0px"
	 viewBox="0 0 1366 768" style="enable-background:new 0 0 1366 768;" xml:space="preserve">
<style type="text/css">
	.st0{fill:#0A4051;stroke:#F4EFEF;stroke-width:0.8572;stroke-miterlimit:10;}
	.st1{fill:#4E97AD;stroke:#F4EFEF;stroke-width:0.5356;stroke-miterlimit:10;}
	.st2{fill:#4E97AD;stroke:#F4EFEF;stroke-width:0.8572;stroke-miterlimit:10;}
	.st3{fill:#A7D8D8;stroke:#F4EFEF;stroke-width:0.8572;stroke-miterlimit:10;}
	.st4{fill:#1A6A89;stroke:#F4EFEF;stroke-width:0.8572;stroke-miterlimit:10;}
</style>
<polygon class="st0" points="518.81,127.35 441.66,127.35 403.09,194.16 441.66,260.98 518.81,260.98 557.39,194.16 "/>
<polygon class="st1" points="504.4,289.78 456.19,289.78 432.09,331.53 456.19,373.28 504.4,373.28 528.5,331.53 "/>
<polygon class="st2" points="754.98,262.79 677.83,262.79 639.25,329.6 677.83,396.42 754.98,396.42 793.55,329.6 "/>
<polygon class="st3" points="754.98,399.09 677.83,399.09 639.25,465.9 677.83,532.72 754.98,532.72 793.55,465.9 "/>
<polygon class="st3" points="925.53,56.5 848.38,56.5 809.81,123.31 848.38,190.13 925.53,190.13 964.11,123.31 "/>
<polygon class="st3" points="1042.97,259.66 965.82,259.66 927.25,326.48 965.82,393.29 1042.97,393.29 1081.55,326.48 "/>
<polygon class="st2" points="1042.97,395.96 965.82,395.96 927.25,462.78 965.82,529.59 1042.97,529.59 1081.55,462.78 "/>
<polygon class="st0" points="400.94,331.37 323.79,331.37 285.22,398.18 323.79,465 400.94,465 439.52,398.18 "/>
<polygon class="st4" points="518.38,398.23 441.23,398.23 402.66,465.05 441.23,531.86 518.38,531.86 556.96,465.05 "/>
<polygon class="st3" points="400.94,195.6 323.79,195.6 285.22,262.41 323.79,329.23 400.94,329.23 439.52,262.41 "/>
<polygon class="st2" points="925.15,466.37 848,466.37 809.43,533.19 848,600 925.15,600 963.73,533.19 "/>
<polygon class="st0" points="622.1,357.75 573.9,357.75 549.79,399.5 573.9,441.25 622.1,441.25 646.21,399.5 "/>
<polygon class="st0" points="911.1,209.75 862.9,209.75 838.79,251.5 862.9,293.25 911.1,293.25 935.21,251.5 "/>
<polygon class="st0" points="1146.1,353.75 1097.9,353.75 1073.79,395.5 1097.9,437.25 1146.1,437.25 1170.21,395.5 "/>
<polygon class="st3" points="622.1,220.75 573.9,220.75 549.79,262.5 573.9,304.25 622.1,304.25 646.21,262.5 "/>
<polygon class="st4" points="858.1,353.75 809.9,353.75 785.79,395.5 809.9,437.25 858.1,437.25 882.21,395.5 "/>
<polygon class="st4" points="1028.1,148.75 979.9,148.75 955.79,190.5 979.9,232.25 1028.1,232.25 1052.21,190.5 "/>
<polygon class="st2" points="268.1,148.75 219.9,148.75 195.79,190.5 219.9,232.25 268.1,232.25 292.21,190.5 "/>
<polygon class="st1" points="386.1,487.75 337.9,487.75 313.79,529.5 337.9,571.25 386.1,571.25 410.21,529.5 "/>
</svg>
